<svg xmlns="http://www.w3.org/2000/svg" width="1600" height="980" viewBox="0 0 1600 980">
  <defs>
    <marker id="arrA" markerWidth="10" markerHeight="8" refX="9" refY="4" orient="auto" markerUnits="strokeWidth">
      <path d="M0,0 L10,4 L0,8 z" fill="#444"/>
    </marker>
    <marker id="arrB" markerWidth="10" markerHeight="8" refX="9" refY="4" orient="auto" markerUnits="strokeWidth">
      <path d="M0,0 L10,4 L0,8 z" fill="#6c8ebf"/>
    </marker>
    <style>
      text { font-family: "PingFang SC", "Microsoft YaHei", sans-serif; fill: #1f2937; }
      .h { font-size: 24px; font-weight: 700; }
      .n { font-size: 28px; font-weight: 600; }
      .l { font-size: 18px; }
      .note { font-size: 20px; }
    </style>
  </defs>

  <rect x="90" y="70" width="650" height="760" rx="12" fill="#f8f1d9" stroke="#d6b656" stroke-width="2"/>
  <rect x="860" y="70" width="650" height="760" rx="12" fill="#d9e8fb" stroke="#6c8ebf" stroke-width="2"/>
  <text x="120" y="115" class="h">自然语言递归</text>
  <text x="890" y="115" class="h">程序语言递归</text>

  <rect x="300" y="160" width="230" height="70" rx="10" fill="#fff2cc" stroke="#d6b656"/>
  <rect x="330" y="290" width="230" height="70" rx="10" fill="#fff2cc" stroke="#d6b656"/>
  <rect x="360" y="420" width="230" height="70" rx="10" fill="#fff2cc" stroke="#d6b656"/>
  <rect x="390" y="550" width="230" height="70" rx="10" fill="#ffe6cc" stroke="#d79b00"/>
  <text x="415" y="205" class="n" text-anchor="middle">我知道</text>
  <text x="445" y="335" class="n" text-anchor="middle">他说</text>
  <text x="475" y="465" class="n" text-anchor="middle">她相信</text>
  <text x="505" y="595" class="n" text-anchor="middle">我们会成功</text>

  <line x1="415" y1="230" x2="445" y2="290" stroke="#444" stroke-width="2.5" marker-end="url(#arrA)"/>
  <line x1="445" y1="360" x2="475" y2="420" stroke="#444" stroke-width="2.5" marker-end="url(#arrA)"/>
  <line x1="475" y1="490" x2="505" y2="550" stroke="#444" stroke-width="2.5" marker-end="url(#arrA)"/>
  <text x="370" y="268" class="l">句子嵌套</text>
  <text x="400" y="398" class="l">句子嵌套</text>
  <text x="430" y="528" class="l">句子嵌套</text>

  <rect x="1070" y="160" width="230" height="70" rx="10" fill="#dae8fc" stroke="#6c8ebf"/>
  <rect x="1100" y="290" width="230" height="70" rx="10" fill="#dae8fc" stroke="#6c8ebf"/>
  <rect x="1130" y="420" width="230" height="70" rx="10" fill="#dae8fc" stroke="#6c8ebf"/>
  <rect x="1160" y="550" width="230" height="70" rx="10" fill="#e1d5e7" stroke="#9673a6"/>
  <text x="1185" y="205" class="n" text-anchor="middle">f( )</text>
  <text x="1215" y="335" class="n" text-anchor="middle">g( )</text>
  <text x="1245" y="465" class="n" text-anchor="middle">h( )</text>
  <text x="1275" y="595" class="n" text-anchor="middle">x</text>

  <line x1="1185" y1="230" x2="1215" y2="290" stroke="#6c8ebf" stroke-width="2.5" marker-end="url(#arrB)"/>
  <line x1="1215" y1="360" x2="1245" y2="420" stroke="#6c8ebf" stroke-width="2.5" marker-end="url(#arrB)"/>
  <line x1="1245" y1="490" x2="1275" y2="550" stroke="#6c8ebf" stroke-width="2.5" marker-end="url(#arrB)"/>
  <text x="1120" y="268" class="l">函数调用嵌套</text>
  <text x="1150" y="398" class="l">函数调用嵌套</text>
  <text x="1180" y="528" class="l">函数调用嵌套</text>

  <rect x="290" y="870" width="1020" height="70" rx="10" fill="#f5f5f5" stroke="#666"/>
  <text x="320" y="915" class="note">共同点：同一层级结构可递归嵌套，有限规则可生成无限深度表达。</text>
</svg>
