<svg xmlns="http://www.w3.org/2000/svg" width="1400" height="560" viewBox="0 0 1400 560"><defs><marker id="arr" markerWidth="10" markerHeight="8" refX="9" refY="4" orient="auto"><path d="M0,0 L10,4 L0,8 z" fill="#444"/></marker><style>text{font-family:"PingFang SC","Microsoft YaHei",sans-serif;fill:#1f2937}.h{font-size:22px;font-weight:700}.n{font-size:18px}</style></defs><text x="80" y="60" class="h">程序的函数调用图</text><rect x="180" y="220" width="140" height="56" rx="10" fill="#e3f2fd" stroke="#1e88e5"/><text x="250" y="255" text-anchor="middle" class="n">main</text><rect x="430" y="130" width="140" height="56" rx="10" fill="#fff2cc" stroke="#d6b656"/><text x="500" y="165" text-anchor="middle" class="n">init</text><rect x="430" y="310" width="160" height="56" rx="10" fill="#fff2cc" stroke="#d6b656"/><text x="510" y="345" text-anchor="middle" class="n">process</text><rect x="760" y="220" width="160" height="56" rx="10" fill="#f8cecc" stroke="#b85450"/><text x="840" y="255" text-anchor="middle" class="n">helper</text><rect x="1040" y="310" width="150" height="56" rx="10" fill="#d5e8d4" stroke="#82b366"/><text x="1115" y="345" text-anchor="middle" class="n">output</text><line x1="320" y1="235" x2="430" y2="170" stroke="#444" stroke-width="2.2" marker-end="url(#arr)"/><line x1="320" y1="260" x2="430" y2="335" stroke="#444" stroke-width="2.2" marker-end="url(#arr)"/><line x1="570" y1="170" x2="760" y2="235" stroke="#444" stroke-width="2.2" marker-end="url(#arr)"/><line x1="590" y1="335" x2="760" y2="260" stroke="#444" stroke-width="2.2" marker-end="url(#arr)"/><line x1="590" y1="345" x2="1040" y2="338" stroke="#444" stroke-width="2.2" marker-end="url(#arr)"/></svg>