<svg xmlns="http://www.w3.org/2000/svg" width="1800" height="520" viewBox="0 0 1800 520"><defs><marker id="arr" markerWidth="10" markerHeight="8" refX="9" refY="4" orient="auto"><path d="M0,0 L10,4 L0,8 z" fill="#444"/></marker><style>text{font-family:"PingFang SC","Microsoft YaHei",sans-serif;fill:#1f2937}.h{font-size:22px;font-weight:700}.n{font-size:17px}</style></defs><text x="80" y="60" class="h">标记语言的演化历程</text><rect x="120" y="220" width="220" height="80" rx="10" fill="#f8cecc" stroke="#b85450"/><text x="230" y="255" text-anchor="middle" class="n">GML (1969)</text><text x="230" y="280" text-anchor="middle" class="n">IBM 标记语言</text><rect x="470" y="220" width="230" height="80" rx="10" fill="#ffe6cc" stroke="#d79b00"/><text x="585" y="255" text-anchor="middle" class="n">SGML (1986)</text><text x="585" y="280" text-anchor="middle" class="n">ISO 标准</text><rect x="850" y="120" width="230" height="80" rx="10" fill="#fff2cc" stroke="#d6b656"/><text x="965" y="155" text-anchor="middle" class="n">XML (1998)</text><text x="965" y="180" text-anchor="middle" class="n">W3C 标准</text><rect x="850" y="320" width="230" height="80" rx="10" fill="#d5e8d4" stroke="#82b366"/><text x="965" y="355" text-anchor="middle" class="n">HTML (1991)</text><text x="965" y="380" text-anchor="middle" class="n">网页标记</text><rect x="1240" y="320" width="240" height="80" rx="10" fill="#dae8fc" stroke="#6c8ebf"/><text x="1360" y="355" text-anchor="middle" class="n">HTML5 (2014)</text><text x="1360" y="380" text-anchor="middle" class="n">现代 Web</text><line x1="340" y1="260" x2="470" y2="260" stroke="#444" stroke-width="2.2" marker-end="url(#arr)"/><line x1="700" y1="245" x2="850" y2="170" stroke="#444" stroke-width="2.2" marker-end="url(#arr)"/><line x1="700" y1="275" x2="850" y2="350" stroke="#444" stroke-width="2.2" marker-end="url(#arr)"/><line x1="1080" y1="360" x2="1240" y2="360" stroke="#444" stroke-width="2.2" marker-end="url(#arr)"/></svg>