<svg xmlns="http://www.w3.org/2000/svg" width="1600" height="760" viewBox="0 0 1600 760"><defs><marker id="arr" markerWidth="10" markerHeight="8" refX="9" refY="4" orient="auto"><path d="M0,0 L10,4 L0,8 z" fill="#444"/></marker><style>text{font-family:"PingFang SC","Microsoft YaHei",sans-serif;fill:#1f2937}.h{font-size:22px;font-weight:700}.n{font-size:18px}</style></defs><text x="90" y="60" class="h">“聪明的学生读书”句法树</text><ellipse cx="800" cy="140" rx="40" ry="40" fill="#ffe6cc" stroke="#d79b00"/><text x="800" y="146" text-anchor="middle" class="n">S</text><ellipse cx="605" cy="285" rx="45" ry="35" fill="#fff2cc" stroke="#d6b656"/><text x="605" y="291" text-anchor="middle" class="n">NP</text><ellipse cx="975" cy="285" rx="45" ry="35" fill="#fff2cc" stroke="#d6b656"/><text x="975" y="291" text-anchor="middle" class="n">VP</text><rect x="470" y="430" width="150" height="56" rx="10" fill="#f8cecc" stroke="#b85450"/><text x="545" y="465" text-anchor="middle" class="n">聪明的</text><rect x="640" y="430" width="150" height="56" rx="10" fill="#f8cecc" stroke="#b85450"/><text x="715" y="465" text-anchor="middle" class="n">学生</text><rect x="900" y="430" width="140" height="56" rx="10" fill="#d5e8d4" stroke="#82b366"/><text x="970" y="465" text-anchor="middle" class="n">读</text><rect x="1060" y="430" width="120" height="56" rx="10" fill="#dae8fc" stroke="#6c8ebf"/><text x="1120" y="465" text-anchor="middle" class="n">书</text><line x1="788" y1="176" x2="638" y2="257" stroke="#444" stroke-width="2.2" marker-end="url(#arr)"/><line x1="812" y1="176" x2="942" y2="257" stroke="#444" stroke-width="2.2" marker-end="url(#arr)"/><line x1="590" y1="318" x2="555" y2="430" stroke="#444" stroke-width="2.2" marker-end="url(#arr)"/><line x1="620" y1="318" x2="700" y2="430" stroke="#444" stroke-width="2.2" marker-end="url(#arr)"/><line x1="960" y1="318" x2="962" y2="430" stroke="#444" stroke-width="2.2" marker-end="url(#arr)"/><line x1="990" y1="318" x2="1110" y2="430" stroke="#444" stroke-width="2.2" marker-end="url(#arr)"/></svg>