<svg xmlns="http://www.w3.org/2000/svg" width="1700" height="620" viewBox="0 0 1700 620"><defs><marker id="arr" markerWidth="10" markerHeight="8" refX="9" refY="4" orient="auto"><path d="M0,0 L10,4 L0,8 z" fill="#444"/></marker><style>text{font-family:"PingFang SC","Microsoft YaHei",sans-serif;fill:#1f2937}.h{font-size:22px;font-weight:700}.n{font-size:17px}.s{font-size:15px}</style></defs><text x="80" y="60" class="h">序列化与反序列化的流程</text><rect x="170" y="220" width="250" height="90" rx="12" fill="#e1f5fe" stroke="#1e88e5"/><text x="295" y="258" text-anchor="middle" class="n">内存对象</text><text x="295" y="286" text-anchor="middle" class="s">Python dict/list</text><rect x="560" y="220" width="230" height="90" rx="12" fill="#fff3e0" stroke="#d79b00"/><text x="675" y="273" text-anchor="middle" class="n">JSON字符串</text><rect x="950" y="120" width="220" height="90" rx="12" fill="#f3e5f5" stroke="#8e24aa"/><text x="1060" y="173" text-anchor="middle" class="n">磁盘文件 .json</text><rect x="950" y="320" width="220" height="90" rx="12" fill="#e8f5e9" stroke="#43a047"/><text x="1060" y="373" text-anchor="middle" class="n">远程服务</text><line x1="420" y1="255" x2="560" y2="255" stroke="#444" stroke-width="2.2" marker-end="url(#arr)"/><line x1="560" y1="285" x2="420" y2="285" stroke="#444" stroke-width="2.2" marker-end="url(#arr)"/><text x="470" y="240" class="s">json.dumps()</text><text x="455" y="320" class="s">json.loads()</text><line x1="790" y1="240" x2="950" y2="170" stroke="#444" stroke-width="2.2" marker-end="url(#arr)"/><line x1="950" y1="190" x2="790" y2="275" stroke="#444" stroke-width="2.2" marker-end="url(#arr)"/><text x="840" y="180" class="s">写入文件</text><text x="845" y="246" class="s">读取文件</text><line x1="790" y1="285" x2="950" y2="355" stroke="#444" stroke-width="2.2" marker-end="url(#arr)"/><line x1="950" y1="335" x2="790" y2="300" stroke="#444" stroke-width="2.2" marker-end="url(#arr)"/><text x="845" y="335" class="s">网络发送</text><text x="845" y="366" class="s">网络接收</text></svg>