<svg xmlns="http://www.w3.org/2000/svg" width="1800" height="1160" viewBox="0 0 1800 1160">
  <defs>
    <marker id="arr" markerWidth="10" markerHeight="8" refX="9" refY="4" orient="auto" markerUnits="strokeWidth">
      <path d="M0,0 L10,4 L0,8 z" fill="#444"/>
    </marker>
    <style>
      text{font-family:"PingFang SC","Microsoft YaHei",sans-serif;fill:#1f2937}
      .h{font-size:22px;font-weight:700}
      .n{font-size:18px}
      .s{font-size:16px}
    </style>
  </defs>

  <rect x="80" y="70" width="780" height="980" rx="12" fill="#fff3e0" stroke="#d79b00" stroke-width="2"/>
  <rect x="940" y="70" width="780" height="980" rx="12" fill="#e3f2fd" stroke="#1e88e5" stroke-width="2"/>
  <text x="110" y="112" class="h">理解一：[咬死了猎人]的狗（定语修饰“狗”）</text>
  <text x="970" y="112" class="h">理解二：咬死了[猎人的狗]（“狗”作宾语）</text>

  <rect x="360" y="160" width="220" height="56" rx="10" fill="#ffe6cc" stroke="#d79b00"/><text x="470" y="195" text-anchor="middle" class="n">NP（名词短语）</text>
  <rect x="230" y="290" width="150" height="52" rx="10" fill="#fff9e6" stroke="#d79b00"/><text x="305" y="322" text-anchor="middle" class="s">定语</text>
  <rect x="560" y="290" width="150" height="52" rx="10" fill="#fff9e6" stroke="#d79b00"/><text x="635" y="322" text-anchor="middle" class="s">中心语</text>
  <rect x="180" y="420" width="250" height="56" rx="10" fill="#fff2cc" stroke="#d6b656"/><text x="305" y="455" text-anchor="middle" class="n">VP（动词短语）</text>
  <rect x="130" y="550" width="130" height="52" rx="10" fill="#fce4ec" stroke="#d81b60"/><text x="195" y="582" text-anchor="middle" class="s">咬死了</text>
  <rect x="340" y="550" width="130" height="52" rx="10" fill="#fce4ec" stroke="#d81b60"/><text x="405" y="582" text-anchor="middle" class="s">猎人</text>
  <rect x="575" y="550" width="120" height="52" rx="10" fill="#f3e5f5" stroke="#8e24aa"/><text x="635" y="582" text-anchor="middle" class="s">狗</text>

  <rect x="1220" y="160" width="220" height="56" rx="10" fill="#dae8fc" stroke="#1e88e5"/><text x="1330" y="195" text-anchor="middle" class="n">VP（动词短语）</text>
  <rect x="1080" y="290" width="140" height="52" rx="10" fill="#fce4ec" stroke="#d81b60"/><text x="1150" y="322" text-anchor="middle" class="s">咬死了</text>
  <rect x="1380" y="290" width="220" height="52" rx="10" fill="#edf6ff" stroke="#1e88e5"/><text x="1490" y="322" text-anchor="middle" class="s">NP（名词短语）</text>
  <rect x="1310" y="420" width="130" height="52" rx="10" fill="#edf6ff" stroke="#1e88e5"/><text x="1375" y="452" text-anchor="middle" class="s">定语</text>
  <rect x="1510" y="420" width="130" height="52" rx="10" fill="#edf6ff" stroke="#1e88e5"/><text x="1575" y="452" text-anchor="middle" class="s">中心语</text>
  <rect x="1310" y="550" width="130" height="52" rx="10" fill="#fce4ec" stroke="#d81b60"/><text x="1375" y="582" text-anchor="middle" class="s">猎人</text>
  <rect x="1510" y="550" width="130" height="52" rx="10" fill="#f3e5f5" stroke="#8e24aa"/><text x="1575" y="582" text-anchor="middle" class="s">狗</text>

  <line x1="470" y1="216" x2="305" y2="290" stroke="#444" stroke-width="2.4" marker-end="url(#arr)"/>
  <line x1="470" y1="216" x2="635" y2="290" stroke="#444" stroke-width="2.4" marker-end="url(#arr)"/>
  <line x1="305" y1="342" x2="305" y2="420" stroke="#444" stroke-width="2.4" marker-end="url(#arr)"/>
  <line x1="305" y1="476" x2="195" y2="550" stroke="#444" stroke-width="2.4" marker-end="url(#arr)"/>
  <line x1="305" y1="476" x2="405" y2="550" stroke="#444" stroke-width="2.4" marker-end="url(#arr)"/>
  <line x1="635" y1="342" x2="635" y2="550" stroke="#444" stroke-width="2.4" marker-end="url(#arr)"/>

  <line x1="1330" y1="216" x2="1150" y2="290" stroke="#444" stroke-width="2.4" marker-end="url(#arr)"/>
  <line x1="1330" y1="216" x2="1490" y2="290" stroke="#444" stroke-width="2.4" marker-end="url(#arr)"/>
  <line x1="1490" y1="342" x2="1375" y2="420" stroke="#444" stroke-width="2.4" marker-end="url(#arr)"/>
  <line x1="1490" y1="342" x2="1575" y2="420" stroke="#444" stroke-width="2.4" marker-end="url(#arr)"/>
  <line x1="1375" y1="472" x2="1375" y2="550" stroke="#444" stroke-width="2.4" marker-end="url(#arr)"/>
  <line x1="1575" y1="472" x2="1575" y2="550" stroke="#444" stroke-width="2.4" marker-end="url(#arr)"/>

  <rect x="500" y="1080" width="800" height="56" rx="10" fill="#f5f5f5" stroke="#666"/>
  <text x="520" y="1115" class="s">同一表面形式对应两棵不同句法树，导致不同语义解释（结构歧义）。</text>
</svg>
