<svg xmlns="http://www.w3.org/2000/svg" width="1400" height="760" viewBox="0 0 1400 760"><defs><marker id="arr" markerWidth="10" markerHeight="8" refX="9" refY="4" orient="auto"><path d="M0,0 L10,4 L0,8 z" fill="#444"/></marker><style>text{font-family:"PingFang SC","Microsoft YaHei",sans-serif;fill:#1f2937} .n{font-size:21px;font-weight:600}</style></defs><rect x="180" y="170" width="300" height="90" rx="10" fill="#f8cecc" stroke="#b85450"/><text x="330" y="225" text-anchor="middle" class="n">读(HED)</text><rect x="540" y="170" width="300" height="90" rx="10" fill="#ffe6cc" stroke="#d79b00"/><text x="690" y="225" text-anchor="middle" class="n">学生(SBV)</text><rect x="900" y="170" width="300" height="90" rx="10" fill="#fff2cc" stroke="#d6b656"/><text x="1050" y="225" text-anchor="middle" class="n">书(VOB)</text><rect x="180" y="450" width="300" height="90" rx="10" fill="#d5e8d4" stroke="#82b366"/><text x="330" y="505" text-anchor="middle" class="n">北京大学(ATT)</text><rect x="540" y="450" width="300" height="90" rx="10" fill="#dae8fc" stroke="#6c8ebf"/><text x="690" y="505" text-anchor="middle" class="n">输入</text><rect x="900" y="450" width="300" height="90" rx="10" fill="#e1d5e7" stroke="#9673a6"/><text x="1050" y="505" text-anchor="middle" class="n">输出</text><line x1="480" y1="215" x2="540" y2="215" stroke="#444" stroke-width="2" marker-end="url(#arr)"/><line x1="840" y1="215" x2="900" y2="215" stroke="#444" stroke-width="2" marker-end="url(#arr)"/><line x1="1050" y1="260" x2="1050" y2="450" stroke="#444" stroke-width="2" marker-end="url(#arr)"/><line x1="900" y1="495" x2="840" y2="495" stroke="#444" stroke-width="2" marker-end="url(#arr)"/><line x1="540" y1="495" x2="480" y2="495" stroke="#444" stroke-width="2" marker-end="url(#arr)"/></svg>