<svg xmlns="http://www.w3.org/2000/svg" width="1800" height="520" viewBox="0 0 1800 520">
<style>text{font-family:"PingFang SC","Microsoft YaHei",sans-serif;fill:#1f2937}.h{font-size:24px;font-weight:700}.t{font-size:18px}</style>
<text x="80" y="60" class="h">Python项目的模块结构示例</text>
<rect x="760" y="80" width="300" height="60" rx="10" fill="#e3f2fd" stroke="#1e88e5"/>
<text x="910.0" y="116.0" text-anchor="middle" class="t">my_project/</text>
<rect x="210" y="200" width="220" height="56" rx="10" fill="#f1fbf2" stroke="#43a047"/>
<text x="320.0" y="234.0" text-anchor="middle" class="t">main.py</text>
<rect x="510" y="200" width="220" height="56" rx="10" fill="#f1fbf2" stroke="#43a047"/>
<text x="620.0" y="234.0" text-anchor="middle" class="t">utils/</text>
<rect x="810" y="200" width="220" height="56" rx="10" fill="#f1fbf2" stroke="#43a047"/>
<text x="920.0" y="234.0" text-anchor="middle" class="t">models/</text>
<rect x="1110" y="200" width="220" height="56" rx="10" fill="#f1fbf2" stroke="#43a047"/>
<text x="1220.0" y="234.0" text-anchor="middle" class="t">tests/</text>
<rect x="480" y="320" width="280" height="56" rx="10" fill="#fff9e6" stroke="#fb8c00"/>
<text x="620.0" y="354.0" text-anchor="middle" class="t">__init__.py / string_utils.py / math_utils.py</text>
<rect x="780" y="320" width="280" height="56" rx="10" fill="#fff9e6" stroke="#fb8c00"/>
<text x="920.0" y="354.0" text-anchor="middle" class="t">__init__.py / user.py / product.py</text>
<rect x="1080" y="320" width="280" height="56" rx="10" fill="#fff9e6" stroke="#fb8c00"/>
<text x="1220.0" y="354.0" text-anchor="middle" class="t">test_utils.py</text>
</svg>