<svg xmlns="http://www.w3.org/2000/svg" width="1800" height="1030" viewBox="0 0 1800 1030">
  <defs>
    <marker id="arr" markerWidth="10" markerHeight="8" refX="9" refY="4" orient="auto" markerUnits="strokeWidth"><path d="M0,0 L10,4 L0,8 z" fill="#444"/></marker>
    <marker id="arrR" markerWidth="10" markerHeight="8" refX="9" refY="4" orient="auto" markerUnits="strokeWidth"><path d="M0,0 L10,4 L0,8 z" fill="#b85450"/></marker>
    <marker id="arrB" markerWidth="10" markerHeight="8" refX="9" refY="4" orient="auto" markerUnits="strokeWidth"><path d="M0,0 L10,4 L0,8 z" fill="#6c8ebf"/></marker>
    <style>text{font-family:"PingFang SC","Microsoft YaHei",sans-serif;fill:#1f2937}.h{font-size:22px;font-weight:700}.n{font-size:18px}.s{font-size:15px}</style>
  </defs>

  <rect x="80" y="90" width="760" height="820" rx="12" fill="#fff3e0" stroke="#d79b00" stroke-width="2"/>
  <rect x="960" y="90" width="760" height="820" rx="12" fill="#e3f2fd" stroke="#1e88e5" stroke-width="2"/>
  <text x="110" y="130" class="h">成分结构（短语层级）</text>
  <text x="990" y="130" class="h">依存结构（词语关系）</text>

  <ellipse cx="460" cy="220" rx="40" ry="40" fill="#ffe6cc" stroke="#d79b00"/><text x="460" y="226" text-anchor="middle" class="n">S</text>
  <ellipse cx="325" cy="365" rx="45" ry="35" fill="#fff2cc" stroke="#d6b656"/><text x="325" y="371" text-anchor="middle" class="n">NP</text>
  <ellipse cx="585" cy="365" rx="45" ry="35" fill="#fff2cc" stroke="#d6b656"/><text x="585" y="371" text-anchor="middle" class="n">VP</text>
  <rect x="250" y="500" width="150" height="58" rx="10" fill="#f8cecc" stroke="#b85450"/><text x="325" y="535" text-anchor="middle" class="n">学生</text>
  <rect x="515" y="500" width="140" height="58" rx="10" fill="#d5e8d4" stroke="#82b366"/><text x="585" y="535" text-anchor="middle" class="n">读</text>
  <ellipse cx="710" cy="535" rx="45" ry="35" fill="#fff2cc" stroke="#d6b656"/><text x="710" y="541" text-anchor="middle" class="n">NP</text>
  <rect x="640" y="640" width="140" height="58" rx="10" fill="#dae8fc" stroke="#6c8ebf"/><text x="710" y="675" text-anchor="middle" class="n">书</text>

  <line x1="450" y1="258" x2="342" y2="333" stroke="#444" stroke-width="2.2" marker-end="url(#arr)"/>
  <line x1="470" y1="258" x2="568" y2="333" stroke="#444" stroke-width="2.2" marker-end="url(#arr)"/>
  <line x1="325" y1="400" x2="325" y2="500" stroke="#444" stroke-width="2.2" marker-end="url(#arr)"/>
  <line x1="585" y1="400" x2="585" y2="500" stroke="#444" stroke-width="2.2" marker-end="url(#arr)"/>
  <line x1="610" y1="392" x2="695" y2="505" stroke="#444" stroke-width="2.2" marker-end="url(#arr)"/>
  <line x1="710" y1="570" x2="710" y2="640" stroke="#444" stroke-width="2.2" marker-end="url(#arr)"/>

  <ellipse cx="1340" cy="420" rx="60" ry="60" fill="#d5e8d4" stroke="#82b366"/><text x="1340" y="420" text-anchor="middle" class="n">读</text><text x="1340" y="444" text-anchor="middle" class="s">HED</text>
  <rect x="1080" y="560" width="160" height="70" rx="10" fill="#f8cecc" stroke="#b85450"/><text x="1160" y="588" text-anchor="middle" class="n">学生</text><text x="1160" y="610" text-anchor="middle" class="s">SBV</text>
  <rect x="1460" y="560" width="160" height="70" rx="10" fill="#dae8fc" stroke="#6c8ebf"/><text x="1540" y="588" text-anchor="middle" class="n">书</text><text x="1540" y="610" text-anchor="middle" class="s">VOB</text>

  <line x1="1310" y1="470" x2="1200" y2="560" stroke="#b85450" stroke-width="2.4" marker-end="url(#arrR)"/>
  <line x1="1370" y1="470" x2="1500" y2="560" stroke="#6c8ebf" stroke-width="2.4" marker-end="url(#arrB)"/>
  <text x="1235" y="520" class="s">主谓 SBV</text>
  <text x="1450" y="520" class="s">动宾 VOB</text>

  <rect x="300" y="950" width="1200" height="56" rx="10" fill="#f5f5f5" stroke="#666"/>
  <text x="320" y="985" class="s">左图强调“短语中介层”（NP/VP）；右图直接连接中心词与依存词，突出语法关系标签。</text>
</svg>
